<?xml version="1.0" encoding="utf-8"?>
<!-- Generator: Adobe Illustrator 16.0.0, SVG Export Plug-In . SVG Version: 6.00 Build 0)  -->
<!DOCTYPE svg PUBLIC "-//W3C//DTD SVG 1.1//EN" "http://www.w3.org/Graphics/SVG/1.1/DTD/svg11.dtd">
<svg version="1.1" id="Layer_1" xmlns="http://www.w3.org/2000/svg" xmlns:xlink="http://www.w3.org/1999/xlink" x="0px" y="0px"
	 width="78.441px" height="156.308px" viewBox="0 0 78.441 156.308" enable-background="new 0 0 78.441 156.308"
	 xml:space="preserve">
<g>
	<path d="M57.558,59.308c-0.037-0.103-0.164-0.231-0.262-0.245c-0.591-0.07-1.186-0.111-1.799-0.164
		c0.895,3.002,5.367,5.642,8.461,5.015c-1.559-0.112-2.973-0.604-4.195-1.584C58.757,61.523,58.007,60.525,57.558,59.308z"/>
	<path d="M71.99,99.357c0.166,0.551,0.573,0.369,0.971,0.336c1.621-0.139,3.245-0.229,4.865-0.373
		c0.055-0.006,0.109-0.01,0.166-0.016c0.171-0.016,0.315-0.012,0.449,0.002v-3.883c-2.673-0.092-5.415-0.703-8.254-1.994
		C70.856,95.632,71.422,97.494,71.99,99.357z"/>
	<path d="M61.111,49.684c-3.214,0.575-6.158,1.808-8.817,3.711c-0.045,0.032-0.088,0.068-0.129,0.105
		c-0.012,0.012-0.015,0.033-0.031,0.074c0.607-0.338,1.188-0.688,1.793-0.987c4.072-2.025,8.322-2.325,12.726-1.358
		c1.546,0.34,2.968,0.963,4.396,1.597c0.909,0.403,1.822,0.801,2.826,0.911c0.133,0.014,0.267,0.021,0.4,0.027
		c0.67,0.029,1.038-0.431,0.875-1.098c-0.131-0.528-0.446-0.91-0.924-1.174c-1.273-0.7-2.646-1.126-4.045-1.489
		C67.181,49.224,64.153,49.139,61.111,49.684z"/>
	<path d="M65.991,59.335c-0.132-0.175-0.225-0.382-0.225-0.618c0-0.458,0.301-0.836,0.713-0.976
		c-0.004-0.052-0.016-0.105-0.038-0.165c-0.091-0.234-0.181-0.471-0.286-0.742c2.914,0.15,5.227,1.393,7.096,3.564
		c-0.023-0.061-0.041-0.123-0.072-0.179c-0.727-1.226-1.645-2.274-2.824-3.087c-2.41-1.658-5.055-2.131-7.88-1.473
		c-1.497,0.348-2.965,0.828-4.44,1.266c-1.877,0.555-3.787,0.855-5.746,0.838c-0.053,0-0.105,0.011-0.159,0.018
		c1.134,0.504,2.308,0.729,3.52,0.805c1.549,0.094,3.032-0.228,4.505-0.65c0.933-0.268,1.868-0.529,2.829-0.801
		c-0.313,0.818-0.317,1.564,0.304,2.227C63.995,60.118,65.307,60.089,65.991,59.335z"/>
	<path d="M78.161,91.652c0.099,0,0.191,0.004,0.28,0.012v-5.328c-0.253-0.01-0.505-0.026-0.756-0.074
		c-4.124,1.555-8.145,3.416-12.509,4.27c2.08,1.4,4.474,0.926,6.748,1.066C73.995,91.73,76.08,91.656,78.161,91.652z"/>
	<path d="M74.357,75.684c-1.036,0.518-2.071,1.033-3.356,1.672c2.418,1.061,4.549,1.99,6.679,2.923
		c0.257,0.138,0.51,0.227,0.762,0.291v-3.83C77.068,76.511,75.728,76.022,74.357,75.684z"/>
	<path d="M78.293,107.628c-0.788,1.742-1.922,3.055-3.143,3.705c-1.576,0.641-3.661,0.717-6.414-0.301
		c-3.462-1.279-11.181-7.453-13.996-10.775c0.002,0.002-0.002,0.004-0.001,0.008c-0.013-0.018-0.024-0.033-0.037-0.051
		c0-0.002-0.002-0.002-0.002-0.004v0.002c-0.199-0.289-0.399-0.576-0.58-0.877c-1.767-2.967-4.046-5.875-4.843-9.119
		c-2.008-8.168-3.323-16.503-4.874-24.781c-0.134-0.709-0.134-1.443-0.14-2.176c-0.098-0.266-0.2-0.529-0.294-0.797l-0.747,0.061
		c0.355,3.445,0.654,6.898,1.092,10.336c0.229,1.793,0.745,3.551,1.037,5.338c0.083,0.503,0.004,1.304-0.314,1.533
		c-0.351,0.258-1.248,0.219-1.572-0.066c-0.41-0.361-0.837-1.373-0.638-1.642c1.221-1.645,0.05-2.736-0.66-4
		c-0.524-0.93-1.095-1.895-1.327-2.918c-1.084-4.73-2.146-9.473-3.03-14.244c-0.155-0.834-0.217-1.658,0.239-1.785
		c0.724-0.199,3.213,0.063,3.799,0.322c0.049-0.15,0.086-0.301,0.121-0.451c-0.632-3.32-0.977-6.775-0.977-10.326
		c0-10.377-0.619-19.951,4.659-27.664C51.251,8.773,59.925,2.709,69.088,0C30.179,4.627,0,37.713,0,77.867
		c0,43.322,35.119,78.441,78.441,78.441v-49.043C78.388,107.405,78.336,107.533,78.293,107.628z M66.493,152.886
		c-8.55-6.998-20.187-16.697-24.533-20.32c-1.096-0.914-1.481-3.611-1.481-3.611v-2.023c5.684-5.412,10.176-13.541,12.776-23.215
		c0.477,0.666,1.048,1.408,1.269,1.77c1.449,2.35,3.143,4.621,5.063,6.602c3.895,4.029,6.367,8.463,6.907,13.643V152.886z"/>
</g>
</svg>
